<mxfile host="65bd71144e">
    <diagram id="InW_yCwNm8WOKo7ayqUT" name="create-trip">
        <mxGraphModel dx="2232" dy="2364" grid="1" gridSize="10" guides="1" tooltips="1" connect="1" arrows="1" fold="1" page="1" pageScale="1" pageWidth="850" pageHeight="1100" math="0" shadow="0">
            <root>
                <mxCell id="0"/>
                <mxCell id="1" parent="0"/>
                <mxCell id="5zqMhfN6qRjlA5MlZztz-1" value="" style="rounded=0;whiteSpace=wrap;html=1;" parent="1" vertex="1">
                    <mxGeometry x="240" y="150" width="380" height="500" as="geometry"/>
                </mxCell>
                <mxCell id="XEVsgQUhDk7PJOl9W0Pi-5" value="" style="group" vertex="1" connectable="0" parent="1">
                    <mxGeometry x="240" y="-600" width="380" height="580" as="geometry"/>
                </mxCell>
                <mxCell id="5zqMhfN6qRjlA5MlZztz-7" value="" style="rounded=0;whiteSpace=wrap;html=1;" parent="XEVsgQUhDk7PJOl9W0Pi-5" vertex="1">
                    <mxGeometry width="380" height="570" as="geometry"/>
                </mxCell>
                <mxCell id="eehXBuaOUmguGm6LmOPK-13" value="Where to next?" style="text;html=1;strokeColor=none;fillColor=none;align=center;verticalAlign=middle;whiteSpace=wrap;rounded=0;fontSize=20;" parent="XEVsgQUhDk7PJOl9W0Pi-5" vertex="1">
                    <mxGeometry x="10" y="20" width="360" height="30" as="geometry"/>
                </mxCell>
                <mxCell id="eehXBuaOUmguGm6LmOPK-25" value="From" style="ellipse;whiteSpace=wrap;html=1;" parent="XEVsgQUhDk7PJOl9W0Pi-5" vertex="1">
                    <mxGeometry x="25" y="80" width="45" height="30" as="geometry"/>
                </mxCell>
                <mxCell id="eehXBuaOUmguGm6LmOPK-26" value="To" style="ellipse;whiteSpace=wrap;html=1;" parent="XEVsgQUhDk7PJOl9W0Pi-5" vertex="1">
                    <mxGeometry x="162.5" y="80" width="45" height="30" as="geometry"/>
                </mxCell>
                <mxCell id="eehXBuaOUmguGm6LmOPK-27" value="Budget" style="ellipse;whiteSpace=wrap;html=1;" parent="XEVsgQUhDk7PJOl9W0Pi-5" vertex="1">
                    <mxGeometry x="310" y="80" width="45" height="30" as="geometry"/>
                </mxCell>
                <mxCell id="7oFj--CHzWyiIleOnGPx-8" value="" style="verticalLabelPosition=bottom;shadow=0;dashed=0;align=center;html=1;verticalAlign=top;strokeWidth=1;shape=mxgraph.mockup.misc.map;rounded=1;labelBackgroundColor=default;sketch=0;strokeColor=default;fontSize=8;fontColor=#000000;fillColor=default;" vertex="1" parent="XEVsgQUhDk7PJOl9W0Pi-5">
                    <mxGeometry x="10" y="220" width="360" height="270" as="geometry"/>
                </mxCell>
                <mxCell id="XEVsgQUhDk7PJOl9W0Pi-1" value="Here we gooooooo" style="rounded=1;html=1;shadow=0;dashed=0;whiteSpace=wrap;fontSize=10;fillColor=#E6E6E6;align=center;strokeColor=#E6E6E6;fontColor=#333333;labelBackgroundColor=none;strokeWidth=1;" vertex="1" parent="XEVsgQUhDk7PJOl9W0Pi-5">
                    <mxGeometry x="10" y="510" width="360" height="50" as="geometry"/>
                </mxCell>
                <mxCell id="7oFj--CHzWyiIleOnGPx-2" value="" style="rounded=0;whiteSpace=wrap;html=1;fillColor=none;movable=1;resizable=1;rotatable=1;deletable=1;editable=1;connectable=1;" vertex="1" parent="XEVsgQUhDk7PJOl9W0Pi-5">
                    <mxGeometry x="10" y="220" width="360" height="270" as="geometry"/>
                </mxCell>
                <mxCell id="7oFj--CHzWyiIleOnGPx-3" value="&lt;span style=&quot;color: rgb(240, 240, 240); font-family: Helvetica; font-size: 15px; font-style: normal; font-variant-ligatures: normal; font-variant-caps: normal; font-weight: 400; letter-spacing: normal; orphans: 2; text-align: center; text-indent: 0px; text-transform: none; widows: 2; word-spacing: 0px; -webkit-text-stroke-width: 0px; text-decoration-thickness: initial; text-decoration-style: initial; text-decoration-color: initial; float: none; display: inline !important;&quot;&gt;Where do you want to stop next?&lt;/span&gt;" style="text;html=1;strokeColor=none;fillColor=none;align=center;verticalAlign=middle;whiteSpace=wrap;rounded=0;fontSize=15;" vertex="1" parent="XEVsgQUhDk7PJOl9W0Pi-5">
                    <mxGeometry x="10" y="139.23076923076923" width="360" height="43.84615384615385" as="geometry"/>
                </mxCell>
                <mxCell id="7oFj--CHzWyiIleOnGPx-4" value="" style="edgeStyle=none;html=1;" edge="1" parent="XEVsgQUhDk7PJOl9W0Pi-5" source="7oFj--CHzWyiIleOnGPx-6">
                    <mxGeometry relative="1" as="geometry">
                        <mxPoint x="190.9375" y="241.53846153846155" as="targetPoint"/>
                    </mxGeometry>
                </mxCell>
                <mxCell id="7oFj--CHzWyiIleOnGPx-5" value="" style="edgeStyle=none;html=1;" edge="1" parent="XEVsgQUhDk7PJOl9W0Pi-5" source="7oFj--CHzWyiIleOnGPx-6">
                    <mxGeometry relative="1" as="geometry">
                        <mxPoint x="190.9375" y="241.53846153846155" as="targetPoint"/>
                    </mxGeometry>
                </mxCell>
                <mxCell id="7oFj--CHzWyiIleOnGPx-6" value="&lt;p style=&quot;line-height: 170%;&quot;&gt;Place 1&lt;br&gt;Place 2&lt;br&gt;Place 3&lt;/p&gt;" style="rounded=0;whiteSpace=wrap;html=1;align=left;spacingLeft=8;" vertex="1" parent="XEVsgQUhDk7PJOl9W0Pi-5">
                    <mxGeometry x="90" y="241.53846153846155" width="200" height="116.92307692307692" as="geometry"/>
                </mxCell>
                <mxCell id="7oFj--CHzWyiIleOnGPx-7" value="Input here..." style="html=1;shadow=0;dashed=0;shape=mxgraph.bootstrap.rrect;rSize=5;strokeColor=#CED4DA;strokeWidth=1;fillColor=#E9ECEF;fontColor=#505050;whiteSpace=wrap;align=left;verticalAlign=middle;spacingLeft=10;fontSize=14;rounded=1;labelBackgroundColor=none;sketch=0;" vertex="1" parent="XEVsgQUhDk7PJOl9W0Pi-5">
                    <mxGeometry x="71.25" y="197.69230769230768" width="237.5" height="43.84615384615385" as="geometry"/>
                </mxCell>
                <mxCell id="eehXBuaOUmguGm6LmOPK-4" value="" style="html=1;verticalLabelPosition=bottom;align=center;labelBackgroundColor=#ffffff;verticalAlign=top;strokeWidth=1;strokeColor=#0080F0;shadow=0;dashed=0;shape=mxgraph.ios7.icons.location;" parent="XEVsgQUhDk7PJOl9W0Pi-5" vertex="1">
                    <mxGeometry x="315" y="202.07999999999998" width="25" height="29.23" as="geometry"/>
                </mxCell>
                <mxCell id="67eTZjWwPhsjONn_VS8W-1" value="&amp;lt;Geolocation&amp;gt;" style="text;html=1;strokeColor=none;fillColor=none;align=center;verticalAlign=middle;whiteSpace=wrap;rounded=0;fontColor=#000000;" parent="XEVsgQUhDk7PJOl9W0Pi-5" vertex="1">
                    <mxGeometry x="100" y="402.3076923076923" width="60" height="43.84615384615385" as="geometry"/>
                </mxCell>
                <mxCell id="XEVsgQUhDk7PJOl9W0Pi-2" value="From" style="rounded=1;align=center;fillColor=#F1F2F4;strokeColor=none;html=1;fontColor=#596780;fontSize=12;labelBackgroundColor=none;sketch=0;strokeWidth=1;" vertex="1" parent="XEVsgQUhDk7PJOl9W0Pi-5">
                    <mxGeometry x="20" y="78.5" width="80" height="33" as="geometry"/>
                </mxCell>
                <mxCell id="XEVsgQUhDk7PJOl9W0Pi-3" value="To" style="rounded=1;align=center;fillColor=#F1F2F4;strokeColor=none;html=1;fontColor=#596780;fontSize=12;labelBackgroundColor=none;sketch=0;strokeWidth=1;" vertex="1" parent="XEVsgQUhDk7PJOl9W0Pi-5">
                    <mxGeometry x="150" y="78.5" width="80" height="33" as="geometry"/>
                </mxCell>
                <mxCell id="XEVsgQUhDk7PJOl9W0Pi-4" value="Budget" style="rounded=1;align=center;fillColor=#F1F2F4;strokeColor=none;html=1;fontColor=#596780;fontSize=12;labelBackgroundColor=none;sketch=0;strokeWidth=1;" vertex="1" parent="XEVsgQUhDk7PJOl9W0Pi-5">
                    <mxGeometry x="280" y="78.5" width="80" height="33" as="geometry"/>
                </mxCell>
                <mxCell id="TCKHwh6ikqj5N-Lq0GTg-1" value="" style="ellipse;whiteSpace=wrap;html=1;aspect=fixed;labelBackgroundColor=none;strokeColor=#2D7600;strokeWidth=0;fontSize=9;fontColor=#ffffff;fillColor=#60a917;" vertex="1" parent="XEVsgQUhDk7PJOl9W0Pi-5">
                    <mxGeometry x="85" y="560" width="20" height="20" as="geometry"/>
                </mxCell>
                <mxCell id="TCKHwh6ikqj5N-Lq0GTg-2" value="" style="ellipse;whiteSpace=wrap;html=1;aspect=fixed;labelBackgroundColor=none;strokeColor=#2D7600;strokeWidth=0;fontSize=9;fontColor=#ffffff;fillColor=#60a917;" vertex="1" parent="XEVsgQUhDk7PJOl9W0Pi-5">
                    <mxGeometry x="180" y="560" width="20" height="20" as="geometry"/>
                </mxCell>
                <mxCell id="lav6voD8obsFC0JVH5Y6-13" value="" style="ellipse;whiteSpace=wrap;html=1;aspect=fixed;labelBackgroundColor=none;strokeColor=#2D7600;strokeWidth=0;fontSize=9;fontColor=#ffffff;fillColor=#60a917;" vertex="1" parent="XEVsgQUhDk7PJOl9W0Pi-5">
                    <mxGeometry x="25" y="525" width="20" height="20" as="geometry"/>
                </mxCell>
                <mxCell id="DAs3Q72w-4pZgSSQMwkT-1" style="edgeStyle=none;html=1;exitX=0.5;exitY=0;exitDx=0;exitDy=0;entryX=0.5;entryY=1;entryDx=0;entryDy=0;strokeWidth=3;fillColor=#60a917;strokeColor=#2D7600;" edge="1" parent="1" source="DAs3Q72w-4pZgSSQMwkT-4" target="TCKHwh6ikqj5N-Lq0GTg-1">
                    <mxGeometry relative="1" as="geometry">
                        <Array as="points"/>
                        <mxPoint x="-300" y="52.5" as="sourcePoint"/>
                        <mxPoint x="110" y="-120" as="targetPoint"/>
                    </mxGeometry>
                </mxCell>
                <mxCell id="DAs3Q72w-4pZgSSQMwkT-2" value="on click" style="edgeLabel;html=1;align=center;verticalAlign=middle;resizable=0;points=[];" vertex="1" connectable="0" parent="DAs3Q72w-4pZgSSQMwkT-1">
                    <mxGeometry x="-0.7846" y="4" relative="1" as="geometry">
                        <mxPoint x="25" y="-150" as="offset"/>
                    </mxGeometry>
                </mxCell>
                <mxCell id="DAs3Q72w-4pZgSSQMwkT-3" value="Where to next?" style="text;html=1;strokeColor=none;fillColor=none;align=center;verticalAlign=middle;whiteSpace=wrap;rounded=0;fontSize=20;" vertex="1" parent="1">
                    <mxGeometry x="250" y="168.5" width="360" height="30" as="geometry"/>
                </mxCell>
                <mxCell id="DAs3Q72w-4pZgSSQMwkT-4" value="From" style="rounded=1;align=center;fillColor=#F1F2F4;strokeColor=none;html=1;fontColor=#596780;fontSize=12;labelBackgroundColor=none;sketch=0;strokeWidth=1;" vertex="1" parent="1">
                    <mxGeometry x="260" y="227" width="80" height="33" as="geometry"/>
                </mxCell>
                <mxCell id="DAs3Q72w-4pZgSSQMwkT-5" value="To" style="rounded=1;align=center;fillColor=#F1F2F4;strokeColor=none;html=1;fontColor=#596780;fontSize=12;labelBackgroundColor=none;sketch=0;strokeWidth=1;" vertex="1" parent="1">
                    <mxGeometry x="390" y="227" width="80" height="33" as="geometry"/>
                </mxCell>
                <mxCell id="DAs3Q72w-4pZgSSQMwkT-6" value="Budget" style="rounded=1;align=center;fillColor=#F1F2F4;strokeColor=none;html=1;fontColor=#596780;fontSize=12;labelBackgroundColor=none;sketch=0;strokeWidth=1;" vertex="1" parent="1">
                    <mxGeometry x="520" y="227" width="80" height="33" as="geometry"/>
                </mxCell>
                <mxCell id="DAs3Q72w-4pZgSSQMwkT-7" value="Here we gooooooo" style="rounded=1;html=1;shadow=0;dashed=0;whiteSpace=wrap;fontSize=10;fillColor=#E6E6E6;align=center;strokeColor=#E6E6E6;fontColor=#333333;labelBackgroundColor=none;strokeWidth=1;" vertex="1" parent="1">
                    <mxGeometry x="250" y="590" width="360" height="50" as="geometry"/>
                </mxCell>
                <mxCell id="DAs3Q72w-4pZgSSQMwkT-9" value="" style="verticalLabelPosition=bottom;shadow=0;dashed=0;align=center;html=1;verticalAlign=top;strokeWidth=1;shape=mxgraph.mockup.misc.map;rounded=1;labelBackgroundColor=default;sketch=0;strokeColor=default;fontSize=8;fontColor=#000000;fillColor=default;" vertex="1" parent="1">
                    <mxGeometry x="250" y="310" width="360" height="270" as="geometry"/>
                </mxCell>
                <mxCell id="DAs3Q72w-4pZgSSQMwkT-10" style="edgeStyle=none;html=1;exitX=0.5;exitY=0;exitDx=0;exitDy=0;strokeWidth=3;fillColor=#60a917;strokeColor=#2D7600;startArrow=none;" edge="1" parent="1" source="lav6voD8obsFC0JVH5Y6-3">
                    <mxGeometry relative="1" as="geometry">
                        <Array as="points"/>
                        <mxPoint x="310" y="237.00000000000023" as="sourcePoint"/>
                        <mxPoint x="430" y="-20" as="targetPoint"/>
                    </mxGeometry>
                </mxCell>
                <mxCell id="TCKHwh6ikqj5N-Lq0GTg-5" value="" style="ellipse;whiteSpace=wrap;html=1;aspect=fixed;labelBackgroundColor=none;strokeColor=#2D7600;strokeWidth=0;fontSize=9;fontColor=#ffffff;fillColor=#60a917;" vertex="1" parent="1">
                    <mxGeometry x="230" y="265" width="20" height="20" as="geometry"/>
                </mxCell>
                <mxCell id="k_Tg7fMqZQ_LNRsQ3_m6-6" value="" style="group" vertex="1" connectable="0" parent="1">
                    <mxGeometry x="-160" y="150" width="280" height="500" as="geometry"/>
                </mxCell>
                <mxCell id="5zqMhfN6qRjlA5MlZztz-17" value="" style="rounded=0;whiteSpace=wrap;html=1;" parent="k_Tg7fMqZQ_LNRsQ3_m6-6" vertex="1">
                    <mxGeometry width="280" height="500" as="geometry"/>
                </mxCell>
                <mxCell id="5zqMhfN6qRjlA5MlZztz-18" value="Home screen" style="text;html=1;strokeColor=none;fillColor=none;align=center;verticalAlign=middle;whiteSpace=wrap;rounded=0;fontSize=20;" parent="k_Tg7fMqZQ_LNRsQ3_m6-6" vertex="1">
                    <mxGeometry x="10" y="10.638297872340425" width="260" height="31.914893617021278" as="geometry"/>
                </mxCell>
                <mxCell id="k_Tg7fMqZQ_LNRsQ3_m6-1" value="" style="group" vertex="1" connectable="0" parent="k_Tg7fMqZQ_LNRsQ3_m6-6">
                    <mxGeometry x="10" y="63.829787234042556" width="90" height="85.1063829787234" as="geometry"/>
                </mxCell>
                <mxCell id="k_Tg7fMqZQ_LNRsQ3_m6-2" value="" style="rounded=1;align=left;fillColor=#F1F2F4;strokeColor=none;html=1;fontColor=#596780;fontSize=12;spacingLeft=26;labelBackgroundColor=none;strokeWidth=1;" vertex="1" parent="k_Tg7fMqZQ_LNRsQ3_m6-1">
                    <mxGeometry x="4.5" width="81" height="85.1063829787234" as="geometry"/>
                </mxCell>
                <mxCell id="k_Tg7fMqZQ_LNRsQ3_m6-3" value="" style="html=1;verticalLabelPosition=bottom;align=center;labelBackgroundColor=#ffffff;verticalAlign=top;strokeWidth=2;strokeColor=#0080F0;shadow=0;dashed=0;shape=mxgraph.ios7.icons.add;fillColor=none;" vertex="1" parent="k_Tg7fMqZQ_LNRsQ3_m6-1">
                    <mxGeometry x="31.5" y="15.957446808510639" width="27" height="31.914893617021278" as="geometry"/>
                </mxCell>
                <mxCell id="k_Tg7fMqZQ_LNRsQ3_m6-4" value="&lt;font style=&quot;font-size: 9px;&quot;&gt;Add Trip&lt;/font&gt;" style="text;html=1;strokeColor=none;fillColor=none;align=center;verticalAlign=middle;whiteSpace=wrap;rounded=0;labelBackgroundColor=none;strokeWidth=1;fontColor=#000000;fontSize=9;" vertex="1" parent="k_Tg7fMqZQ_LNRsQ3_m6-1">
                    <mxGeometry y="53.191489361702125" width="90" height="21.27659574468085" as="geometry"/>
                </mxCell>
                <mxCell id="TCKHwh6ikqj5N-Lq0GTg-3" style="edgeStyle=none;html=1;exitX=1;exitY=0.5;exitDx=0;exitDy=0;strokeWidth=3;fillColor=#60a917;strokeColor=#2D7600;entryX=0;entryY=0.5;entryDx=0;entryDy=0;" edge="1" parent="1" source="k_Tg7fMqZQ_LNRsQ3_m6-2" target="TCKHwh6ikqj5N-Lq0GTg-5">
                    <mxGeometry relative="1" as="geometry">
                        <Array as="points"/>
                        <mxPoint x="-10" y="229.99999999999977" as="sourcePoint"/>
                        <mxPoint x="200" y="280" as="targetPoint"/>
                    </mxGeometry>
                </mxCell>
                <mxCell id="TCKHwh6ikqj5N-Lq0GTg-4" value="on click" style="edgeLabel;html=1;align=center;verticalAlign=middle;resizable=0;points=[];" vertex="1" connectable="0" parent="TCKHwh6ikqj5N-Lq0GTg-3">
                    <mxGeometry x="-0.7846" y="4" relative="1" as="geometry">
                        <mxPoint x="112" y="11" as="offset"/>
                    </mxGeometry>
                </mxCell>
                <mxCell id="k_Tg7fMqZQ_LNRsQ3_m6-7" value="" style="group" vertex="1" connectable="0" parent="1">
                    <mxGeometry x="700" y="-600" width="380" height="580" as="geometry"/>
                </mxCell>
                <mxCell id="k_Tg7fMqZQ_LNRsQ3_m6-8" value="" style="rounded=0;whiteSpace=wrap;html=1;" vertex="1" parent="k_Tg7fMqZQ_LNRsQ3_m6-7">
                    <mxGeometry width="380" height="570" as="geometry"/>
                </mxCell>
                <mxCell id="k_Tg7fMqZQ_LNRsQ3_m6-9" value="Where to next?" style="text;html=1;strokeColor=none;fillColor=none;align=center;verticalAlign=middle;whiteSpace=wrap;rounded=0;fontSize=20;" vertex="1" parent="k_Tg7fMqZQ_LNRsQ3_m6-7">
                    <mxGeometry x="10" y="20" width="360" height="30" as="geometry"/>
                </mxCell>
                <mxCell id="k_Tg7fMqZQ_LNRsQ3_m6-10" value="From" style="ellipse;whiteSpace=wrap;html=1;" vertex="1" parent="k_Tg7fMqZQ_LNRsQ3_m6-7">
                    <mxGeometry x="25" y="80" width="45" height="30" as="geometry"/>
                </mxCell>
                <mxCell id="k_Tg7fMqZQ_LNRsQ3_m6-11" value="To" style="ellipse;whiteSpace=wrap;html=1;" vertex="1" parent="k_Tg7fMqZQ_LNRsQ3_m6-7">
                    <mxGeometry x="162.5" y="80" width="45" height="30" as="geometry"/>
                </mxCell>
                <mxCell id="k_Tg7fMqZQ_LNRsQ3_m6-12" value="Budget" style="ellipse;whiteSpace=wrap;html=1;" vertex="1" parent="k_Tg7fMqZQ_LNRsQ3_m6-7">
                    <mxGeometry x="310" y="80" width="45" height="30" as="geometry"/>
                </mxCell>
                <mxCell id="k_Tg7fMqZQ_LNRsQ3_m6-14" value="Here we gooooooo" style="rounded=1;html=1;shadow=0;dashed=0;whiteSpace=wrap;fontSize=10;fillColor=#E6E6E6;align=center;strokeColor=#E6E6E6;fontColor=#333333;labelBackgroundColor=none;strokeWidth=1;" vertex="1" parent="k_Tg7fMqZQ_LNRsQ3_m6-7">
                    <mxGeometry x="10" y="510" width="360" height="50" as="geometry"/>
                </mxCell>
                <mxCell id="k_Tg7fMqZQ_LNRsQ3_m6-16" value="&lt;span style=&quot;color: rgb(240, 240, 240); font-family: Helvetica; font-size: 15px; font-style: normal; font-variant-ligatures: normal; font-variant-caps: normal; font-weight: 400; letter-spacing: normal; orphans: 2; text-align: center; text-indent: 0px; text-transform: none; widows: 2; word-spacing: 0px; -webkit-text-stroke-width: 0px; text-decoration-thickness: initial; text-decoration-style: initial; text-decoration-color: initial; float: none; display: inline !important;&quot;&gt;What's your budget for this trip?&lt;/span&gt;" style="text;html=1;strokeColor=none;fillColor=none;align=center;verticalAlign=middle;whiteSpace=wrap;rounded=0;fontSize=15;labelBackgroundColor=none;" vertex="1" parent="k_Tg7fMqZQ_LNRsQ3_m6-7">
                    <mxGeometry x="10" y="139.23076923076923" width="360" height="43.84615384615385" as="geometry"/>
                </mxCell>
                <mxCell id="k_Tg7fMqZQ_LNRsQ3_m6-17" value="" style="edgeStyle=none;html=1;" edge="1" parent="k_Tg7fMqZQ_LNRsQ3_m6-7">
                    <mxGeometry relative="1" as="geometry">
                        <mxPoint x="190.9375" y="241.53846153846155" as="targetPoint"/>
                        <mxPoint x="190.9375" y="241.53846153846143" as="sourcePoint"/>
                    </mxGeometry>
                </mxCell>
                <mxCell id="k_Tg7fMqZQ_LNRsQ3_m6-18" value="" style="edgeStyle=none;html=1;" edge="1" parent="k_Tg7fMqZQ_LNRsQ3_m6-7">
                    <mxGeometry relative="1" as="geometry">
                        <mxPoint x="190.9375" y="241.53846153846155" as="targetPoint"/>
                        <mxPoint x="190.9375" y="241.53846153846143" as="sourcePoint"/>
                    </mxGeometry>
                </mxCell>
                <mxCell id="k_Tg7fMqZQ_LNRsQ3_m6-20" value="Input number" style="html=1;shadow=0;dashed=0;shape=mxgraph.bootstrap.rrect;rSize=5;strokeColor=#CED4DA;strokeWidth=1;fillColor=#E9ECEF;fontColor=#505050;whiteSpace=wrap;align=left;verticalAlign=middle;spacingLeft=10;fontSize=14;rounded=1;labelBackgroundColor=none;sketch=0;" vertex="1" parent="k_Tg7fMqZQ_LNRsQ3_m6-7">
                    <mxGeometry x="162.5" y="197.69" width="207.5" height="43.85" as="geometry"/>
                </mxCell>
                <mxCell id="k_Tg7fMqZQ_LNRsQ3_m6-23" value="From" style="rounded=1;align=center;fillColor=#F1F2F4;strokeColor=none;html=1;fontColor=#596780;fontSize=12;labelBackgroundColor=none;sketch=0;strokeWidth=1;" vertex="1" parent="k_Tg7fMqZQ_LNRsQ3_m6-7">
                    <mxGeometry x="20" y="78.5" width="80" height="33" as="geometry"/>
                </mxCell>
                <mxCell id="k_Tg7fMqZQ_LNRsQ3_m6-24" value="To" style="rounded=1;align=center;fillColor=#F1F2F4;strokeColor=none;html=1;fontColor=#596780;fontSize=12;labelBackgroundColor=none;sketch=0;strokeWidth=1;" vertex="1" parent="k_Tg7fMqZQ_LNRsQ3_m6-7">
                    <mxGeometry x="150" y="78.5" width="80" height="33" as="geometry"/>
                </mxCell>
                <mxCell id="k_Tg7fMqZQ_LNRsQ3_m6-25" value="Budget" style="rounded=1;align=center;fillColor=#d80073;strokeColor=#A50040;html=1;fontColor=#ffffff;fontSize=12;labelBackgroundColor=none;sketch=0;strokeWidth=1;" vertex="1" parent="k_Tg7fMqZQ_LNRsQ3_m6-7">
                    <mxGeometry x="280" y="78.5" width="80" height="33" as="geometry"/>
                </mxCell>
                <mxCell id="k_Tg7fMqZQ_LNRsQ3_m6-26" value="" style="ellipse;whiteSpace=wrap;html=1;aspect=fixed;labelBackgroundColor=none;strokeColor=#2D7600;strokeWidth=0;fontSize=9;fontColor=#ffffff;fillColor=#60a917;" vertex="1" parent="k_Tg7fMqZQ_LNRsQ3_m6-7">
                    <mxGeometry x="85" y="560" width="20" height="20" as="geometry"/>
                </mxCell>
                <mxCell id="k_Tg7fMqZQ_LNRsQ3_m6-28" value="Global budget for trip" style="text;html=1;strokeColor=none;fillColor=none;align=center;verticalAlign=middle;whiteSpace=wrap;rounded=0;" vertex="1" parent="k_Tg7fMqZQ_LNRsQ3_m6-7">
                    <mxGeometry x="10" y="204.62" width="130" height="30" as="geometry"/>
                </mxCell>
                <mxCell id="lav6voD8obsFC0JVH5Y6-9" value="" style="ellipse;whiteSpace=wrap;html=1;aspect=fixed;labelBackgroundColor=none;strokeColor=#2D7600;strokeWidth=0;fontSize=9;fontColor=#ffffff;fillColor=#60a917;" vertex="1" parent="k_Tg7fMqZQ_LNRsQ3_m6-7">
                    <mxGeometry x="250" y="525" width="20" height="20" as="geometry"/>
                </mxCell>
                <mxCell id="k_Tg7fMqZQ_LNRsQ3_m6-29" style="edgeStyle=none;html=1;exitX=0.5;exitY=0;exitDx=0;exitDy=0;strokeWidth=3;fillColor=#60a917;strokeColor=#2D7600;" edge="1" parent="1" source="DAs3Q72w-4pZgSSQMwkT-6" target="k_Tg7fMqZQ_LNRsQ3_m6-26">
                    <mxGeometry relative="1" as="geometry">
                        <Array as="points"/>
                        <mxPoint x="670" y="227" as="sourcePoint"/>
                        <mxPoint x="670" y="-30" as="targetPoint"/>
                    </mxGeometry>
                </mxCell>
                <mxCell id="k_Tg7fMqZQ_LNRsQ3_m6-30" value="on click" style="edgeLabel;html=1;align=center;verticalAlign=middle;resizable=0;points=[];" vertex="1" connectable="0" parent="k_Tg7fMqZQ_LNRsQ3_m6-29">
                    <mxGeometry x="-0.7846" y="4" relative="1" as="geometry">
                        <mxPoint x="128" y="-137" as="offset"/>
                    </mxGeometry>
                </mxCell>
                <mxCell id="lav6voD8obsFC0JVH5Y6-1" value="Opens toasty" style="shape=callout;whiteSpace=wrap;html=1;perimeter=calloutPerimeter;rounded=1;labelBackgroundColor=none;sketch=0;strokeColor=default;strokeWidth=1;fontSize=12;fontColor=#FFFFFF;fillColor=#66CC00;" vertex="1" parent="1">
                    <mxGeometry x="810" y="420" width="120" height="80" as="geometry"/>
                </mxCell>
                <mxCell id="lav6voD8obsFC0JVH5Y6-2" value="" style="ellipse;whiteSpace=wrap;html=1;aspect=fixed;labelBackgroundColor=none;strokeColor=#2D7600;strokeWidth=0;fontSize=9;fontColor=#ffffff;fillColor=#60a917;" vertex="1" parent="1">
                    <mxGeometry x="550" y="215" width="20" height="20" as="geometry"/>
                </mxCell>
                <mxCell id="lav6voD8obsFC0JVH5Y6-4" value="" style="edgeStyle=none;html=1;exitX=0.5;exitY=0;exitDx=0;exitDy=0;strokeWidth=3;fillColor=#60a917;strokeColor=#2D7600;endArrow=none;" edge="1" parent="1" source="DAs3Q72w-4pZgSSQMwkT-5" target="lav6voD8obsFC0JVH5Y6-3">
                    <mxGeometry relative="1" as="geometry">
                        <Array as="points"/>
                        <mxPoint x="430" y="227" as="sourcePoint"/>
                        <mxPoint x="430" y="-20" as="targetPoint"/>
                    </mxGeometry>
                </mxCell>
                <mxCell id="lav6voD8obsFC0JVH5Y6-5" value="on click" style="edgeLabel;html=1;align=center;verticalAlign=middle;resizable=0;points=[];" vertex="1" connectable="0" parent="lav6voD8obsFC0JVH5Y6-4">
                    <mxGeometry x="-0.7846" y="4" relative="1" as="geometry">
                        <mxPoint x="4" y="-150" as="offset"/>
                    </mxGeometry>
                </mxCell>
                <mxCell id="lav6voD8obsFC0JVH5Y6-3" value="" style="ellipse;whiteSpace=wrap;html=1;aspect=fixed;labelBackgroundColor=none;strokeColor=#2D7600;strokeWidth=0;fontSize=9;fontColor=#ffffff;fillColor=#60a917;" vertex="1" parent="1">
                    <mxGeometry x="420" y="215" width="20" height="20" as="geometry"/>
                </mxCell>
                <mxCell id="lav6voD8obsFC0JVH5Y6-6" value="" style="ellipse;whiteSpace=wrap;html=1;aspect=fixed;labelBackgroundColor=none;strokeColor=#2D7600;strokeWidth=0;fontSize=9;fontColor=#ffffff;fillColor=#60a917;" vertex="1" parent="1">
                    <mxGeometry x="290" y="215" width="20" height="20" as="geometry"/>
                </mxCell>
                <mxCell id="lav6voD8obsFC0JVH5Y6-7" style="edgeStyle=none;html=1;strokeWidth=3;fillColor=#60a917;strokeColor=#2D7600;entryX=0.5;entryY=0;entryDx=0;entryDy=0;entryPerimeter=0;exitX=0.5;exitY=1;exitDx=0;exitDy=0;" edge="1" parent="1" source="lav6voD8obsFC0JVH5Y6-9" target="lav6voD8obsFC0JVH5Y6-1">
                    <mxGeometry relative="1" as="geometry">
                        <Array as="points"/>
                        <mxPoint x="960" as="sourcePoint"/>
                        <mxPoint x="798.2427537148187" y="-12.628458597984036" as="targetPoint"/>
                    </mxGeometry>
                </mxCell>
                <mxCell id="lav6voD8obsFC0JVH5Y6-8" value="on click" style="edgeLabel;html=1;align=center;verticalAlign=middle;resizable=0;points=[];" vertex="1" connectable="0" parent="lav6voD8obsFC0JVH5Y6-7">
                    <mxGeometry x="-0.7846" y="4" relative="1" as="geometry">
                        <mxPoint x="-12" y="59" as="offset"/>
                    </mxGeometry>
                </mxCell>
                <mxCell id="lav6voD8obsFC0JVH5Y6-10" value="Opens toasty" style="shape=callout;whiteSpace=wrap;html=1;perimeter=calloutPerimeter;rounded=1;labelBackgroundColor=none;sketch=0;strokeColor=default;strokeWidth=1;fontSize=12;fontColor=#FFFFFF;fillColor=#66CC00;" vertex="1" parent="1">
                    <mxGeometry x="-10" y="-86.5" width="120" height="80" as="geometry"/>
                </mxCell>
                <mxCell id="lav6voD8obsFC0JVH5Y6-11" style="edgeStyle=none;html=1;strokeWidth=3;fillColor=#60a917;strokeColor=#2D7600;entryX=0;entryY=0;entryDx=120;entryDy=25;entryPerimeter=0;exitX=0;exitY=0.5;exitDx=0;exitDy=0;" edge="1" parent="1" target="lav6voD8obsFC0JVH5Y6-10" source="lav6voD8obsFC0JVH5Y6-13">
                    <mxGeometry relative="1" as="geometry">
                        <Array as="points"/>
                        <mxPoint x="200" y="-70" as="sourcePoint"/>
                        <mxPoint x="-91.75724628518128" y="-187.62845859798404" as="targetPoint"/>
                    </mxGeometry>
                </mxCell>
                <mxCell id="lav6voD8obsFC0JVH5Y6-12" value="on click" style="edgeLabel;html=1;align=center;verticalAlign=middle;resizable=0;points=[];" vertex="1" connectable="0" parent="lav6voD8obsFC0JVH5Y6-11">
                    <mxGeometry x="-0.7846" y="4" relative="1" as="geometry">
                        <mxPoint x="-12" y="59" as="offset"/>
                    </mxGeometry>
                </mxCell>
                <mxCell id="lav6voD8obsFC0JVH5Y6-14" style="edgeStyle=none;html=1;strokeWidth=3;fillColor=#60a917;strokeColor=#2D7600;entryX=0.41;entryY=0.615;entryDx=0;entryDy=0;entryPerimeter=0;exitX=1;exitY=0.5;exitDx=0;exitDy=0;" edge="1" parent="1" source="lav6voD8obsFC0JVH5Y6-16" target="lav6voD8obsFC0JVH5Y6-1">
                    <mxGeometry relative="1" as="geometry">
                        <Array as="points">
                            <mxPoint x="810" y="615"/>
                        </Array>
                        <mxPoint x="680" y="612" as="sourcePoint"/>
                        <mxPoint x="880" y="430" as="targetPoint"/>
                    </mxGeometry>
                </mxCell>
                <mxCell id="lav6voD8obsFC0JVH5Y6-15" value="on click" style="edgeLabel;html=1;align=center;verticalAlign=middle;resizable=0;points=[];" vertex="1" connectable="0" parent="lav6voD8obsFC0JVH5Y6-14">
                    <mxGeometry x="-0.7846" y="4" relative="1" as="geometry">
                        <mxPoint x="-12" y="59" as="offset"/>
                    </mxGeometry>
                </mxCell>
                <mxCell id="lav6voD8obsFC0JVH5Y6-16" value="" style="ellipse;whiteSpace=wrap;html=1;aspect=fixed;labelBackgroundColor=none;strokeColor=#2D7600;strokeWidth=0;fontSize=9;fontColor=#ffffff;fillColor=#60a917;" vertex="1" parent="1">
                    <mxGeometry x="570" y="605" width="20" height="20" as="geometry"/>
                </mxCell>
            </root>
        </mxGraphModel>
    </diagram>
    <diagram id="4IvABGaTJVGKP-pfyGaY" name="trip_Details_screen">
        <mxGraphModel dx="1900" dy="1738" grid="1" gridSize="10" guides="1" tooltips="1" connect="1" arrows="1" fold="1" page="1" pageScale="1" pageWidth="850" pageHeight="1100" math="0" shadow="0">
            <root>
                <mxCell id="0"/>
                <mxCell id="1" parent="0"/>
                <mxCell id="10" value="" style="rounded=0;whiteSpace=wrap;html=1;" parent="1" vertex="1">
                    <mxGeometry x="440" y="340" width="380" height="440" as="geometry"/>
                </mxCell>
                <mxCell id="PL_LG7uSQPIwJg6jKI2E-67" value="" style="verticalLabelPosition=bottom;shadow=0;dashed=0;align=center;html=1;verticalAlign=top;strokeWidth=1;shape=mxgraph.mockup.misc.map;rounded=1;labelBackgroundColor=none;sketch=0;strokeColor=default;fontSize=15;fontColor=#000000;fillColor=none;" vertex="1" parent="1">
                    <mxGeometry x="450" y="480" width="360" height="210" as="geometry"/>
                </mxCell>
                <mxCell id="45" value="" style="group" parent="1" vertex="1" connectable="0">
                    <mxGeometry x="1220" y="140" width="392.5" height="440" as="geometry"/>
                </mxCell>
                <mxCell id="pvaAOozpmYT1dyhe3T81-67" value="" style="rounded=0;whiteSpace=wrap;html=1;" parent="45" vertex="1">
                    <mxGeometry width="380" height="440" as="geometry"/>
                </mxCell>
                <mxCell id="pvaAOozpmYT1dyhe3T81-70" value="Overview" style="rounded=0;whiteSpace=wrap;html=1;fillColor=#d80073;fontColor=#ffffff;strokeColor=#A50040;" parent="45" vertex="1">
                    <mxGeometry x="200" y="90" width="80" height="40" as="geometry"/>
                </mxCell>
                <mxCell id="pvaAOozpmYT1dyhe3T81-71" value="MapView" style="rounded=0;whiteSpace=wrap;html=1;" parent="45" vertex="1">
                    <mxGeometry x="290" y="90" width="80" height="40" as="geometry"/>
                </mxCell>
                <mxCell id="pwWlHZMNSHFD94gdd8Dv-74" value="&lt;font style=&quot;font-size: 20px;&quot;&gt;label: {{ trip.name }}&lt;/font&gt;" style="text;html=1;strokeColor=none;fillColor=none;align=center;verticalAlign=middle;whiteSpace=wrap;rounded=0;" parent="45" vertex="1">
                    <mxGeometry x="20" y="20" width="350" height="30" as="geometry"/>
                </mxCell>
                <mxCell id="1yUVg0TVSJItLezKIQnq-64" value="" style="group" vertex="1" connectable="0" parent="45">
                    <mxGeometry x="10" y="140" width="360" height="260" as="geometry"/>
                </mxCell>
                <mxCell id="pvaAOozpmYT1dyhe3T81-72" value="" style="rounded=0;whiteSpace=wrap;html=1;" parent="1yUVg0TVSJItLezKIQnq-64" vertex="1">
                    <mxGeometry width="360" height="260" as="geometry"/>
                </mxCell>
                <mxCell id="pvaAOozpmYT1dyhe3T81-73" value="&lt;span style=&quot;color: rgb(240, 240, 240); font-family: Helvetica; font-size: 15px; font-style: normal; font-variant-ligatures: normal; font-variant-caps: normal; font-weight: 400; letter-spacing: normal; orphans: 2; text-align: center; text-indent: 0px; text-transform: none; widows: 2; word-spacing: 0px; -webkit-text-stroke-width: 0px; background-color: rgb(42, 37, 47); text-decoration-thickness: initial; text-decoration-style: initial; text-decoration-color: initial; float: none; display: inline !important;&quot;&gt;Where do you want to stop next?&lt;/span&gt;" style="text;html=1;strokeColor=none;fillColor=none;align=center;verticalAlign=middle;whiteSpace=wrap;rounded=0;fontSize=15;" parent="1yUVg0TVSJItLezKIQnq-64" vertex="1">
                    <mxGeometry y="20" width="360" height="30" as="geometry"/>
                </mxCell>
                <mxCell id="pvaAOozpmYT1dyhe3T81-76" value="" style="edgeStyle=none;html=1;" parent="1yUVg0TVSJItLezKIQnq-64" source="pvaAOozpmYT1dyhe3T81-75" edge="1">
                    <mxGeometry relative="1" as="geometry">
                        <mxPoint x="180.9375" y="90" as="targetPoint"/>
                    </mxGeometry>
                </mxCell>
                <mxCell id="pvaAOozpmYT1dyhe3T81-77" value="" style="edgeStyle=none;html=1;" parent="1yUVg0TVSJItLezKIQnq-64" source="pvaAOozpmYT1dyhe3T81-75" edge="1">
                    <mxGeometry relative="1" as="geometry">
                        <mxPoint x="180.9375" y="90" as="targetPoint"/>
                    </mxGeometry>
                </mxCell>
                <mxCell id="pvaAOozpmYT1dyhe3T81-75" value="&lt;p style=&quot;line-height: 170%;&quot;&gt;Place 1&lt;br&gt;Place 2&lt;br&gt;Place 3&lt;/p&gt;" style="rounded=0;whiteSpace=wrap;html=1;align=left;spacingLeft=8;" parent="1yUVg0TVSJItLezKIQnq-64" vertex="1">
                    <mxGeometry x="80" y="90" width="200" height="80" as="geometry"/>
                </mxCell>
                <mxCell id="FuwA4S4MlxGj7PKHn2jJ-64" value="Input here..." style="html=1;shadow=0;dashed=0;shape=mxgraph.bootstrap.rrect;rSize=5;strokeColor=#CED4DA;strokeWidth=1;fillColor=#E9ECEF;fontColor=#505050;whiteSpace=wrap;align=left;verticalAlign=middle;spacingLeft=10;fontSize=14;rounded=1;labelBackgroundColor=none;sketch=0;" vertex="1" parent="1yUVg0TVSJItLezKIQnq-64">
                    <mxGeometry x="61.25" y="60" width="237.5" height="30" as="geometry"/>
                </mxCell>
                <mxCell id="D-NwI1vALifeMtk9Y8tK-45" value="" style="group" parent="1" vertex="1" connectable="0">
                    <mxGeometry x="1220" y="740" width="855" height="690" as="geometry"/>
                </mxCell>
                <mxCell id="pwWlHZMNSHFD94gdd8Dv-85" value="" style="rounded=0;whiteSpace=wrap;html=1;" parent="D-NwI1vALifeMtk9Y8tK-45" vertex="1">
                    <mxGeometry width="480" height="690" as="geometry"/>
                </mxCell>
                <mxCell id="pwWlHZMNSHFD94gdd8Dv-86" value="Stop information view" style="text;html=1;strokeColor=none;fillColor=none;align=center;verticalAlign=middle;whiteSpace=wrap;rounded=0;fontSize=20;" parent="D-NwI1vALifeMtk9Y8tK-45" vertex="1">
                    <mxGeometry x="10" y="13" width="450" height="30" as="geometry"/>
                </mxCell>
                <mxCell id="pwWlHZMNSHFD94gdd8Dv-87" value="{{ picture.url }}" style="rounded=1;whiteSpace=wrap;html=1;spacingTop=101;" parent="D-NwI1vALifeMtk9Y8tK-45" vertex="1">
                    <mxGeometry x="10" y="43" width="460" height="200" as="geometry"/>
                </mxCell>
                <mxCell id="pwWlHZMNSHFD94gdd8Dv-88" value="&lt;h1&gt;&lt;span style=&quot;background-color: initial;&quot;&gt;{{ stop.name }}&lt;/span&gt;&lt;/h1&gt;&lt;h1&gt;&lt;span style=&quot;background-color: initial; font-size: 12px; font-weight: normal;&quot;&gt;Created by: {{ usermane }}&lt;/span&gt;&lt;br&gt;&lt;/h1&gt;&lt;p&gt;Created on {{ creationDate }}&lt;br&gt;Last update: {{ updateDate }}&lt;br&gt;&lt;/p&gt;&lt;p&gt;{{ geolocation x/y }}&lt;/p&gt;" style="text;html=1;strokeColor=none;fillColor=none;spacing=5;spacingTop=-20;whiteSpace=wrap;overflow=hidden;rounded=0;" parent="D-NwI1vALifeMtk9Y8tK-45" vertex="1">
                    <mxGeometry x="10" y="260" width="460" height="350" as="geometry"/>
                </mxCell>
                <mxCell id="pwWlHZMNSHFD94gdd8Dv-94" value="-Status red on poi indicates that it is part of the trip&lt;br&gt;&lt;br&gt;- status blue means that the poi is not added to trip so you can add it by clicking on it on the map&lt;br&gt;&lt;br&gt;- on click of poi toggles the tooltip of poi and highlights in list" style="text;html=1;strokeColor=none;fillColor=none;align=left;verticalAlign=middle;whiteSpace=wrap;rounded=0;labelBackgroundColor=none;" parent="D-NwI1vALifeMtk9Y8tK-45" vertex="1">
                    <mxGeometry x="510" y="323" width="345" height="160" as="geometry"/>
                </mxCell>
                <mxCell id="pwWlHZMNSHFD94gdd8Dv-67" value="on click adds poi to trip" style="text;html=1;strokeColor=none;fillColor=none;align=center;verticalAlign=middle;whiteSpace=wrap;rounded=0;fontSize=10;" parent="D-NwI1vALifeMtk9Y8tK-45" vertex="1">
                    <mxGeometry x="190" y="422" width="60" height="55" as="geometry"/>
                </mxCell>
                <mxCell id="pwWlHZMNSHFD94gdd8Dv-98" style="edgeStyle=none;html=1;exitX=1;exitY=0.5;exitDx=0;exitDy=0;" parent="D-NwI1vALifeMtk9Y8tK-45" source="Ab45LtixUykTujZ2iHWU-114" target="pwWlHZMNSHFD94gdd8Dv-67" edge="1">
                    <mxGeometry relative="1" as="geometry">
                        <mxPoint x="162.25000000000023" y="435.5" as="sourcePoint"/>
                    </mxGeometry>
                </mxCell>
                <mxCell id="Ab45LtixUykTujZ2iHWU-105" value="" style="ellipse;whiteSpace=wrap;html=1;aspect=fixed;labelBackgroundColor=none;strokeColor=#2D7600;strokeWidth=0;fontSize=9;fontColor=#ffffff;fillColor=#60a917;" vertex="1" parent="D-NwI1vALifeMtk9Y8tK-45">
                    <mxGeometry x="-10" y="88" width="20" height="20" as="geometry"/>
                </mxCell>
                <mxCell id="Ab45LtixUykTujZ2iHWU-106" value="" style="ellipse;whiteSpace=wrap;html=1;aspect=fixed;labelBackgroundColor=none;strokeColor=#2D7600;strokeWidth=0;fontSize=9;fontColor=#ffffff;fillColor=#60a917;" vertex="1" parent="D-NwI1vALifeMtk9Y8tK-45">
                    <mxGeometry x="-10" y="160" width="20" height="20" as="geometry"/>
                </mxCell>
                <mxCell id="Ab45LtixUykTujZ2iHWU-107" value="" style="verticalLabelPosition=bottom;shadow=0;dashed=0;align=center;html=1;verticalAlign=top;strokeWidth=1;shape=mxgraph.mockup.misc.map;labelBackgroundColor=none;strokeColor=#0080f0;fontSize=9;fontColor=#000000;fillColor=default;opacity=50;" vertex="1" parent="D-NwI1vALifeMtk9Y8tK-45">
                    <mxGeometry x="250" y="340" width="220" height="260" as="geometry"/>
                </mxCell>
                <mxCell id="pwWlHZMNSHFD94gdd8Dv-104" value="&lt;font style=&quot;font-size: 9px;&quot;&gt;poi1&lt;/font&gt;" style="text;html=1;strokeColor=none;fillColor=default;align=center;verticalAlign=middle;whiteSpace=wrap;rounded=1;spacing=0;spacingBottom=4;" parent="D-NwI1vALifeMtk9Y8tK-45" vertex="1">
                    <mxGeometry x="320" y="418" width="38.4" height="20" as="geometry"/>
                </mxCell>
                <mxCell id="Ab45LtixUykTujZ2iHWU-109" value="" style="html=1;verticalLabelPosition=bottom;align=center;labelBackgroundColor=#999900;verticalAlign=top;strokeWidth=1;strokeColor=#FFFFFF;shadow=0;dashed=0;shape=mxgraph.ios7.icons.location;fillColor=#0080F0;" vertex="1" parent="D-NwI1vALifeMtk9Y8tK-45">
                    <mxGeometry x="330" y="435" width="18.4" height="23" as="geometry"/>
                </mxCell>
                <mxCell id="pwWlHZMNSHFD94gdd8Dv-101" value="MarkerClicked&lt;br&gt;On Place" style="ellipse;whiteSpace=wrap;html=1;" parent="D-NwI1vALifeMtk9Y8tK-45" vertex="1">
                    <mxGeometry x="338.4" y="360" width="41.6" height="40" as="geometry"/>
                </mxCell>
                <mxCell id="Ab45LtixUykTujZ2iHWU-110" value="&lt;font style=&quot;font-size: 9px;&quot;&gt;poi2&lt;/font&gt;" style="text;html=1;strokeColor=none;fillColor=default;align=center;verticalAlign=middle;whiteSpace=wrap;rounded=1;spacing=0;spacingBottom=4;" vertex="1" parent="D-NwI1vALifeMtk9Y8tK-45">
                    <mxGeometry x="271.5999999999999" y="370" width="38.4" height="20" as="geometry"/>
                </mxCell>
                <mxCell id="pwWlHZMNSHFD94gdd8Dv-102" value="" style="html=1;verticalLabelPosition=bottom;align=center;labelBackgroundColor=#999900;verticalAlign=top;strokeWidth=1;strokeColor=#FFFFFF;shadow=0;dashed=0;shape=mxgraph.ios7.icons.location;fillColor=#FF0000;" parent="D-NwI1vALifeMtk9Y8tK-45" vertex="1">
                    <mxGeometry x="280" y="385" width="18.4" height="23" as="geometry"/>
                </mxCell>
                <mxCell id="Ab45LtixUykTujZ2iHWU-111" value="Save place to trip" style="rounded=1;html=1;shadow=0;dashed=0;whiteSpace=wrap;fontSize=10;fillColor=#E6E6E6;align=center;strokeColor=#E6E6E6;fontColor=#333333;labelBackgroundColor=none;strokeWidth=1;" vertex="1" parent="D-NwI1vALifeMtk9Y8tK-45">
                    <mxGeometry x="10" y="630" width="210" height="50" as="geometry"/>
                </mxCell>
                <mxCell id="Ab45LtixUykTujZ2iHWU-112" value="Remove place from trip" style="rounded=1;html=1;shadow=0;dashed=0;whiteSpace=wrap;fontSize=10;fillColor=#E6E6E6;align=center;strokeColor=#E6E6E6;fontColor=#333333;labelBackgroundColor=none;strokeWidth=1;" vertex="1" parent="D-NwI1vALifeMtk9Y8tK-45">
                    <mxGeometry x="250" y="630" width="220" height="50" as="geometry"/>
                </mxCell>
                <mxCell id="Ab45LtixUykTujZ2iHWU-123" value="" style="group" vertex="1" connectable="0" parent="D-NwI1vALifeMtk9Y8tK-45">
                    <mxGeometry x="10.11" y="433" width="159.89" height="75" as="geometry"/>
                </mxCell>
                <mxCell id="43" value="PlaceOfInterest" style="rounded=0;whiteSpace=wrap;html=1;" parent="Ab45LtixUykTujZ2iHWU-123" vertex="1">
                    <mxGeometry width="159.89" height="75" as="geometry"/>
                </mxCell>
                <mxCell id="Ab45LtixUykTujZ2iHWU-113" value="" style="shape=mxgraph.signs.healthcare.eye;html=1;pointerEvents=1;fillColor=#0080F0;strokeColor=#0080f0;verticalLabelPosition=bottom;verticalAlign=top;align=center;labelBackgroundColor=#999900;strokeWidth=0;" vertex="1" parent="Ab45LtixUykTujZ2iHWU-123">
                    <mxGeometry x="9.89" y="32.5" width="18.000000000000004" height="10" as="geometry"/>
                </mxCell>
                <mxCell id="Ab45LtixUykTujZ2iHWU-114" value="" style="rounded=1;align=left;fillColor=#F1F2F4;strokeColor=none;html=1;fontColor=#596780;fontSize=12;spacingLeft=26;labelBackgroundColor=none;sketch=0;strokeWidth=1;" vertex="1" parent="Ab45LtixUykTujZ2iHWU-123">
                    <mxGeometry x="127.89000000000001" width="32" height="33" as="geometry"/>
                </mxCell>
                <mxCell id="Ab45LtixUykTujZ2iHWU-116" value="" style="rounded=1;align=left;fillColor=#F1F2F4;strokeColor=none;html=1;fontColor=#596780;fontSize=12;spacingLeft=26;labelBackgroundColor=none;sketch=0;strokeWidth=1;" vertex="1" parent="Ab45LtixUykTujZ2iHWU-123">
                    <mxGeometry x="127.89000000000001" y="42" width="32" height="33" as="geometry"/>
                </mxCell>
                <mxCell id="Ab45LtixUykTujZ2iHWU-121" value="" style="html=1;verticalLabelPosition=bottom;align=center;labelBackgroundColor=#ffffff;verticalAlign=top;strokeWidth=2;strokeColor=#0080F0;shadow=0;dashed=0;shape=mxgraph.ios7.icons.add;fillColor=none;" vertex="1" parent="Ab45LtixUykTujZ2iHWU-123">
                    <mxGeometry x="136.39" y="9" width="15.000000000000002" height="15" as="geometry"/>
                </mxCell>
                <mxCell id="Ab45LtixUykTujZ2iHWU-122" value="" style="html=1;verticalLabelPosition=bottom;align=center;labelBackgroundColor=#ffffff;verticalAlign=top;strokeWidth=2;strokeColor=#0080F0;shadow=0;dashed=0;shape=mxgraph.ios7.icons.delete;rounded=1;sketch=0;fontSize=20;fontColor=#000000;fillColor=none;" vertex="1" parent="Ab45LtixUykTujZ2iHWU-123">
                    <mxGeometry x="136.76999999999998" y="51.370000000000005" width="14.250000000000002" height="14.25" as="geometry"/>
                </mxCell>
                <mxCell id="Ab45LtixUykTujZ2iHWU-124" value="" style="group" vertex="1" connectable="0" parent="D-NwI1vALifeMtk9Y8tK-45">
                    <mxGeometry x="10.1099999999999" y="520" width="159.89" height="75" as="geometry"/>
                </mxCell>
                <mxCell id="Ab45LtixUykTujZ2iHWU-125" value="PlaceOfInterest" style="rounded=0;whiteSpace=wrap;html=1;" vertex="1" parent="Ab45LtixUykTujZ2iHWU-124">
                    <mxGeometry width="159.89" height="75" as="geometry"/>
                </mxCell>
                <mxCell id="Ab45LtixUykTujZ2iHWU-126" value="" style="shape=mxgraph.signs.healthcare.eye;html=1;pointerEvents=1;fillColor=#0080F0;strokeColor=#0080f0;verticalLabelPosition=bottom;verticalAlign=top;align=center;labelBackgroundColor=#999900;strokeWidth=0;" vertex="1" parent="Ab45LtixUykTujZ2iHWU-124">
                    <mxGeometry x="9.89" y="32.5" width="18" height="10" as="geometry"/>
                </mxCell>
                <mxCell id="Ab45LtixUykTujZ2iHWU-127" value="" style="rounded=1;align=left;fillColor=#F1F2F4;strokeColor=none;html=1;fontColor=#596780;fontSize=12;spacingLeft=26;labelBackgroundColor=none;sketch=0;strokeWidth=1;" vertex="1" parent="Ab45LtixUykTujZ2iHWU-124">
                    <mxGeometry x="127.89" width="32" height="33" as="geometry"/>
                </mxCell>
                <mxCell id="Ab45LtixUykTujZ2iHWU-128" value="" style="rounded=1;align=left;fillColor=#F1F2F4;strokeColor=none;html=1;fontColor=#596780;fontSize=12;spacingLeft=26;labelBackgroundColor=none;sketch=0;strokeWidth=1;" vertex="1" parent="Ab45LtixUykTujZ2iHWU-124">
                    <mxGeometry x="127.89" y="42" width="32" height="33" as="geometry"/>
                </mxCell>
                <mxCell id="Ab45LtixUykTujZ2iHWU-129" value="" style="html=1;verticalLabelPosition=bottom;align=center;labelBackgroundColor=#ffffff;verticalAlign=top;strokeWidth=2;strokeColor=#0080F0;shadow=0;dashed=0;shape=mxgraph.ios7.icons.add;fillColor=none;" vertex="1" parent="Ab45LtixUykTujZ2iHWU-124">
                    <mxGeometry x="136.39" y="9" width="15" height="15" as="geometry"/>
                </mxCell>
                <mxCell id="Ab45LtixUykTujZ2iHWU-130" value="" style="html=1;verticalLabelPosition=bottom;align=center;labelBackgroundColor=#ffffff;verticalAlign=top;strokeWidth=2;strokeColor=#0080F0;shadow=0;dashed=0;shape=mxgraph.ios7.icons.delete;rounded=1;sketch=0;fontSize=20;fontColor=#000000;fillColor=none;" vertex="1" parent="Ab45LtixUykTujZ2iHWU-124">
                    <mxGeometry x="136.76999999999998" y="51.370000000000005" width="14.25" height="14.25" as="geometry"/>
                </mxCell>
                <mxCell id="Ab45LtixUykTujZ2iHWU-131" value="on click remove poi from trip" style="text;html=1;strokeColor=none;fillColor=none;align=center;verticalAlign=middle;whiteSpace=wrap;rounded=0;fontSize=10;" vertex="1" parent="D-NwI1vALifeMtk9Y8tK-45">
                    <mxGeometry x="190" y="550" width="60" height="55" as="geometry"/>
                </mxCell>
                <mxCell id="Ab45LtixUykTujZ2iHWU-132" value="" style="edgeStyle=none;html=1;strokeColor=#FFFFFF;strokeWidth=1;fontSize=10;fontColor=#000000;" edge="1" parent="D-NwI1vALifeMtk9Y8tK-45" source="Ab45LtixUykTujZ2iHWU-128" target="Ab45LtixUykTujZ2iHWU-131">
                    <mxGeometry relative="1" as="geometry">
                        <Array as="points"/>
                    </mxGeometry>
                </mxCell>
                <mxCell id="PL_LG7uSQPIwJg6jKI2E-65" value="" style="sketch=0;outlineConnect=0;fontColor=#232F3E;gradientColor=none;fillColor=#FFFFFF;strokeColor=none;dashed=0;verticalLabelPosition=bottom;verticalAlign=top;align=center;html=1;fontSize=12;fontStyle=0;aspect=fixed;pointerEvents=1;shape=mxgraph.aws4.container_registry_image;strokeWidth=1;" vertex="1" parent="D-NwI1vALifeMtk9Y8tK-45">
                    <mxGeometry x="195" y="80" width="90" height="90" as="geometry"/>
                </mxCell>
                <mxCell id="pwWlHZMNSHFD94gdd8Dv-96" value="nice to have:&lt;br&gt;- places list orderable by drag and drop" style="text;html=1;strokeColor=none;fillColor=none;align=left;verticalAlign=middle;whiteSpace=wrap;rounded=0;labelBackgroundColor=none;" parent="1" vertex="1">
                    <mxGeometry x="240" y="990" width="150" height="140" as="geometry"/>
                </mxCell>
                <mxCell id="63" value="" style="group" vertex="1" connectable="0" parent="1">
                    <mxGeometry x="440" y="890" width="380" height="440" as="geometry"/>
                </mxCell>
                <mxCell id="28" value="" style="rounded=0;whiteSpace=wrap;html=1;" parent="63" vertex="1">
                    <mxGeometry width="380" height="440" as="geometry"/>
                </mxCell>
                <mxCell id="31" value="Overview" style="rounded=0;whiteSpace=wrap;html=1;fillColor=#d80073;fontColor=#ffffff;strokeColor=#A50040;" parent="63" vertex="1">
                    <mxGeometry x="200" y="90" width="80" height="40" as="geometry"/>
                </mxCell>
                <mxCell id="32" value="MapView" style="rounded=0;whiteSpace=wrap;html=1;" parent="63" vertex="1">
                    <mxGeometry x="290" y="90" width="80" height="40" as="geometry"/>
                </mxCell>
                <mxCell id="pwWlHZMNSHFD94gdd8Dv-75" value="&lt;span style=&quot;color: rgb(240, 240, 240); font-family: Helvetica; font-size: 20px; font-style: normal; font-variant-ligatures: normal; font-variant-caps: normal; letter-spacing: normal; orphans: 2; text-align: center; text-indent: 0px; text-transform: none; widows: 2; word-spacing: 0px; -webkit-text-stroke-width: 0px; text-decoration-thickness: initial; text-decoration-style: initial; text-decoration-color: initial; float: none; display: inline !important;&quot;&gt;label: Trip (place overview)&lt;br&gt;{{ place1 }} to {{ placeLast}}&lt;br&gt;&lt;/span&gt;" style="text;html=1;strokeColor=none;fillColor=none;align=center;verticalAlign=middle;whiteSpace=wrap;rounded=0;" parent="63" vertex="1">
                    <mxGeometry x="10" y="19" width="360" height="30" as="geometry"/>
                </mxCell>
                <mxCell id="51" value="" style="group" vertex="1" connectable="0" parent="63">
                    <mxGeometry x="12.5" y="140" width="357.5" height="110" as="geometry"/>
                </mxCell>
                <mxCell id="34" value="" style="rounded=0;whiteSpace=wrap;html=1;strokeWidth=1;" parent="51" vertex="1">
                    <mxGeometry width="357.5" height="110" as="geometry"/>
                </mxCell>
                <mxCell id="36" value="" style="rounded=0;whiteSpace=wrap;html=1;" parent="51" vertex="1">
                    <mxGeometry width="90" height="110" as="geometry"/>
                </mxCell>
                <mxCell id="39" value="label: {{ Stop.name }}" style="text;html=1;strokeColor=none;fillColor=none;align=left;verticalAlign=middle;whiteSpace=wrap;rounded=0;" parent="51" vertex="1">
                    <mxGeometry x="97.5" y="5" width="230" height="30" as="geometry"/>
                </mxCell>
                <mxCell id="49" value="" style="sketch=0;outlineConnect=0;fontColor=#232F3E;gradientColor=none;fillColor=#FFFFFF;strokeColor=none;dashed=0;verticalLabelPosition=bottom;verticalAlign=top;align=center;html=1;fontSize=12;fontStyle=0;aspect=fixed;pointerEvents=1;shape=mxgraph.aws4.container_registry_image;strokeWidth=1;" vertex="1" parent="51">
                    <mxGeometry x="21" y="35" width="48" height="48" as="geometry"/>
                </mxCell>
                <mxCell id="52" value="" style="group" vertex="1" connectable="0" parent="63">
                    <mxGeometry x="12.5" y="260" width="357.5" height="110" as="geometry"/>
                </mxCell>
                <mxCell id="53" value="" style="rounded=0;whiteSpace=wrap;html=1;strokeWidth=1;" vertex="1" parent="52">
                    <mxGeometry width="357.5" height="110" as="geometry"/>
                </mxCell>
                <mxCell id="54" value="" style="rounded=0;whiteSpace=wrap;html=1;" vertex="1" parent="52">
                    <mxGeometry width="90" height="110" as="geometry"/>
                </mxCell>
                <mxCell id="55" value="label: {{ Stop.name }}" style="text;html=1;strokeColor=none;fillColor=none;align=left;verticalAlign=middle;whiteSpace=wrap;rounded=0;" vertex="1" parent="52">
                    <mxGeometry x="97.5" y="5" width="230" height="30" as="geometry"/>
                </mxCell>
                <mxCell id="56" value="" style="sketch=0;outlineConnect=0;fontColor=#232F3E;gradientColor=none;fillColor=#FFFFFF;strokeColor=none;dashed=0;verticalLabelPosition=bottom;verticalAlign=top;align=center;html=1;fontSize=12;fontStyle=0;aspect=fixed;pointerEvents=1;shape=mxgraph.aws4.container_registry_image;strokeWidth=1;" vertex="1" parent="52">
                    <mxGeometry x="21" y="35" width="48" height="48" as="geometry"/>
                </mxCell>
                <mxCell id="57" value="Save your trip" style="rounded=1;html=1;shadow=0;dashed=0;whiteSpace=wrap;fontSize=10;fillColor=#E6E6E6;align=center;strokeColor=#E6E6E6;fontColor=#333333;labelBackgroundColor=none;strokeWidth=1;" vertex="1" parent="63">
                    <mxGeometry x="10" y="380" width="360" height="50" as="geometry"/>
                </mxCell>
                <mxCell id="62" value="" style="group" vertex="1" connectable="0" parent="63">
                    <mxGeometry x="10" y="90" width="50" height="40" as="geometry"/>
                </mxCell>
                <mxCell id="58" value="" style="rounded=1;align=left;fillColor=#F1F2F4;strokeColor=none;html=1;fontColor=#596780;fontSize=12;spacingLeft=26;labelBackgroundColor=none;strokeWidth=1;" vertex="1" parent="62">
                    <mxGeometry x="2.5" width="45" height="40" as="geometry"/>
                </mxCell>
                <mxCell id="60" value="" style="html=1;verticalLabelPosition=bottom;align=center;labelBackgroundColor=#ffffff;verticalAlign=top;strokeWidth=2;strokeColor=#0080F0;shadow=0;dashed=0;shape=mxgraph.ios7.icons.add;fillColor=none;" vertex="1" parent="62">
                    <mxGeometry x="17.5" y="7.5" width="15" height="15" as="geometry"/>
                </mxCell>
                <mxCell id="61" value="&lt;font style=&quot;font-size: 9px;&quot;&gt;Add place&lt;/font&gt;" style="text;html=1;strokeColor=none;fillColor=none;align=center;verticalAlign=middle;whiteSpace=wrap;rounded=0;labelBackgroundColor=none;strokeWidth=1;fontColor=#000000;fontSize=9;" vertex="1" parent="62">
                    <mxGeometry y="25" width="50" height="10" as="geometry"/>
                </mxCell>
                <mxCell id="pwWlHZMNSHFD94gdd8Dv-99" style="edgeStyle=none;html=1;exitX=1;exitY=0;exitDx=0;exitDy=0;strokeWidth=3;fillColor=#60a917;strokeColor=#2D7600;entryX=0;entryY=1;entryDx=0;entryDy=0;startArrow=none;" parent="1" source="A8_FpeVpBRCD3ABZSXtD-64" target="Ab45LtixUykTujZ2iHWU-106" edge="1">
                    <mxGeometry relative="1" as="geometry">
                        <Array as="points"/>
                        <mxPoint x="1170" y="940" as="targetPoint"/>
                    </mxGeometry>
                </mxCell>
                <mxCell id="13" value="Overview" style="rounded=0;whiteSpace=wrap;html=1;" parent="1" vertex="1">
                    <mxGeometry x="640" y="420" width="80" height="40" as="geometry"/>
                </mxCell>
                <mxCell id="14" value="MapView" style="rounded=0;whiteSpace=wrap;html=1;fillColor=#d80073;fontColor=#ffffff;strokeColor=#A50040;" parent="1" vertex="1">
                    <mxGeometry x="730" y="420" width="80" height="40" as="geometry"/>
                </mxCell>
                <mxCell id="19" value="" style="rounded=0;whiteSpace=wrap;html=1;" parent="1" vertex="1">
                    <mxGeometry x="450" y="700" width="120" height="60" as="geometry"/>
                </mxCell>
                <mxCell id="21" value="Stop" style="rounded=0;whiteSpace=wrap;html=1;" parent="1" vertex="1">
                    <mxGeometry x="570" y="700" width="120" height="60" as="geometry"/>
                </mxCell>
                <mxCell id="22" value="" style="rounded=0;whiteSpace=wrap;html=1;" parent="1" vertex="1">
                    <mxGeometry x="690" y="700" width="120" height="60" as="geometry"/>
                </mxCell>
                <mxCell id="24" value="Stop1" style="ellipse;whiteSpace=wrap;html=1;fontSize=9;" parent="1" vertex="1">
                    <mxGeometry x="490" y="500" width="40" height="40" as="geometry"/>
                </mxCell>
                <mxCell id="64" value="&lt;span style=&quot;color: rgb(240, 240, 240); font-family: Helvetica; font-style: normal; font-variant-ligatures: normal; font-variant-caps: normal; font-weight: 400; letter-spacing: normal; orphans: 2; text-align: center; text-indent: 0px; text-transform: none; widows: 2; word-spacing: 0px; -webkit-text-stroke-width: 0px; text-decoration-thickness: initial; text-decoration-style: initial; text-decoration-color: initial; float: none; display: inline !important;&quot;&gt;&lt;font style=&quot;font-size: 20px;&quot;&gt;label: {{ trip.name }}&lt;/font&gt;&lt;br&gt;&lt;/span&gt;" style="text;html=1;strokeColor=none;fillColor=none;align=center;verticalAlign=middle;whiteSpace=wrap;rounded=0;" vertex="1" parent="1">
                    <mxGeometry x="450" y="350" width="360" height="30" as="geometry"/>
                </mxCell>
                <mxCell id="Ab45LtixUykTujZ2iHWU-70" value="" style="group" vertex="1" connectable="0" parent="1">
                    <mxGeometry x="720" y="710" width="50" height="40" as="geometry"/>
                </mxCell>
                <mxCell id="Ab45LtixUykTujZ2iHWU-71" value="" style="rounded=1;align=left;fillColor=#F1F2F4;strokeColor=none;html=1;fontColor=#596780;fontSize=12;spacingLeft=26;labelBackgroundColor=none;strokeWidth=1;" vertex="1" parent="Ab45LtixUykTujZ2iHWU-70">
                    <mxGeometry x="2.5" width="45" height="40" as="geometry"/>
                </mxCell>
                <mxCell id="Ab45LtixUykTujZ2iHWU-72" value="" style="html=1;verticalLabelPosition=bottom;align=center;labelBackgroundColor=#ffffff;verticalAlign=top;strokeWidth=2;strokeColor=#0080F0;shadow=0;dashed=0;shape=mxgraph.ios7.icons.add;fillColor=none;" vertex="1" parent="Ab45LtixUykTujZ2iHWU-70">
                    <mxGeometry x="17.5" y="7.5" width="15" height="15" as="geometry"/>
                </mxCell>
                <mxCell id="Ab45LtixUykTujZ2iHWU-73" value="&lt;font style=&quot;font-size: 9px;&quot;&gt;Add Stop&lt;/font&gt;" style="text;html=1;strokeColor=none;fillColor=none;align=center;verticalAlign=middle;whiteSpace=wrap;rounded=0;labelBackgroundColor=none;strokeWidth=1;fontColor=#000000;fontSize=9;" vertex="1" parent="Ab45LtixUykTujZ2iHWU-70">
                    <mxGeometry y="25" width="50" height="10" as="geometry"/>
                </mxCell>
                <mxCell id="Ab45LtixUykTujZ2iHWU-67" value="" style="rounded=1;align=left;fillColor=#F1F2F4;strokeColor=none;html=1;fontColor=#596780;fontSize=12;spacingLeft=26;labelBackgroundColor=none;strokeWidth=1;" vertex="1" parent="1">
                    <mxGeometry x="485" y="710" width="50" height="40" as="geometry"/>
                </mxCell>
                <mxCell id="Ab45LtixUykTujZ2iHWU-68" value="" style="shape=mxgraph.signs.healthcare.eye;html=1;pointerEvents=1;fillColor=#0080F0;strokeColor=#0080f0;verticalLabelPosition=bottom;verticalAlign=top;align=center;labelBackgroundColor=#999900;strokeWidth=0;" vertex="1" parent="1">
                    <mxGeometry x="501" y="721" width="18" height="10" as="geometry"/>
                </mxCell>
                <mxCell id="Ab45LtixUykTujZ2iHWU-75" value="View Stop" style="text;html=1;strokeColor=none;fillColor=none;align=center;verticalAlign=middle;whiteSpace=wrap;rounded=0;labelBackgroundColor=none;strokeWidth=0;fontSize=9;fontColor=#000000;" vertex="1" parent="1">
                    <mxGeometry x="485" y="731" width="50" height="20" as="geometry"/>
                </mxCell>
                <mxCell id="Ab45LtixUykTujZ2iHWU-100" value="" style="group" vertex="1" connectable="0" parent="1">
                    <mxGeometry x="605" y="710" width="50" height="50" as="geometry"/>
                </mxCell>
                <mxCell id="Ab45LtixUykTujZ2iHWU-97" value="" style="rounded=1;align=left;fillColor=#F1F2F4;strokeColor=none;html=1;fontColor=#596780;fontSize=12;spacingLeft=26;labelBackgroundColor=none;strokeWidth=1;" vertex="1" parent="Ab45LtixUykTujZ2iHWU-100">
                    <mxGeometry width="50" height="40" as="geometry"/>
                </mxCell>
                <mxCell id="Ab45LtixUykTujZ2iHWU-98" value="" style="shape=mxgraph.signs.healthcare.eye;html=1;pointerEvents=1;fillColor=#0080F0;strokeColor=#0080f0;verticalLabelPosition=bottom;verticalAlign=top;align=center;labelBackgroundColor=#999900;strokeWidth=0;" vertex="1" parent="Ab45LtixUykTujZ2iHWU-100">
                    <mxGeometry x="16" y="11" width="18" height="10" as="geometry"/>
                </mxCell>
                <mxCell id="Ab45LtixUykTujZ2iHWU-99" value="View Stop" style="text;html=1;strokeColor=none;fillColor=none;align=center;verticalAlign=middle;whiteSpace=wrap;rounded=0;labelBackgroundColor=none;strokeWidth=0;fontSize=9;fontColor=#000000;" vertex="1" parent="Ab45LtixUykTujZ2iHWU-100">
                    <mxGeometry y="21" width="50" height="20" as="geometry"/>
                </mxCell>
                <mxCell id="A8_FpeVpBRCD3ABZSXtD-70" value="" style="ellipse;whiteSpace=wrap;html=1;aspect=fixed;labelBackgroundColor=none;strokeColor=#2D7600;strokeWidth=0;fontSize=9;fontColor=#ffffff;fillColor=#60a917;" vertex="1" parent="Ab45LtixUykTujZ2iHWU-100">
                    <mxGeometry x="16" y="30" width="20" height="20" as="geometry"/>
                </mxCell>
                <mxCell id="PL_LG7uSQPIwJg6jKI2E-68" value="Stop2" style="ellipse;whiteSpace=wrap;html=1;fontSize=9;" vertex="1" parent="1">
                    <mxGeometry x="590" y="620" width="40" height="40" as="geometry"/>
                </mxCell>
                <mxCell id="PL_LG7uSQPIwJg6jKI2E-69" value="Stop3" style="ellipse;whiteSpace=wrap;html=1;fontSize=9;" vertex="1" parent="1">
                    <mxGeometry x="710" y="550" width="40" height="40" as="geometry"/>
                </mxCell>
                <mxCell id="PL_LG7uSQPIwJg6jKI2E-71" value="" style="rounded=1;whiteSpace=wrap;html=1;labelBackgroundColor=default;sketch=0;strokeColor=default;strokeWidth=0;fontSize=9;fontColor=#000000;fillColor=default;" vertex="1" parent="1">
                    <mxGeometry x="700" y="515" width="60" height="35" as="geometry"/>
                </mxCell>
                <mxCell id="pwWlHZMNSHFD94gdd8Dv-107" value="Tooltip &lt;br&gt;for my stop3" style="text;html=1;strokeColor=none;fillColor=none;align=center;verticalAlign=middle;whiteSpace=wrap;rounded=0;labelBackgroundColor=none;fontSize=8;" parent="1" vertex="1">
                    <mxGeometry x="700" y="510" width="60" height="40" as="geometry"/>
                </mxCell>
                <mxCell id="PL_LG7uSQPIwJg6jKI2E-72" value="" style="endArrow=none;html=1;strokeColor=#2D7600;strokeWidth=3;fontSize=8;fontColor=#000000;exitX=1;exitY=1;exitDx=0;exitDy=0;entryX=0;entryY=0;entryDx=0;entryDy=0;fillColor=#60a917;endFill=0;" edge="1" parent="1" source="24" target="PL_LG7uSQPIwJg6jKI2E-68">
                    <mxGeometry width="50" height="50" relative="1" as="geometry">
                        <mxPoint x="570" y="580" as="sourcePoint"/>
                        <mxPoint x="620" y="530" as="targetPoint"/>
                    </mxGeometry>
                </mxCell>
                <mxCell id="PL_LG7uSQPIwJg6jKI2E-73" value="" style="endArrow=none;html=1;strokeColor=#2D7600;strokeWidth=3;fontSize=8;fontColor=#000000;exitX=1;exitY=0;exitDx=0;exitDy=0;entryX=0;entryY=1;entryDx=0;entryDy=0;fillColor=#60a917;endFill=0;" edge="1" parent="1" source="PL_LG7uSQPIwJg6jKI2E-68" target="PL_LG7uSQPIwJg6jKI2E-69">
                    <mxGeometry width="50" height="50" relative="1" as="geometry">
                        <mxPoint x="534.142135623731" y="544.142135623731" as="sourcePoint"/>
                        <mxPoint x="605.8578643762689" y="635.857864376269" as="targetPoint"/>
                    </mxGeometry>
                </mxCell>
                <mxCell id="rCZ8Uh6wAshxI6CyTJFV-65" style="edgeStyle=none;html=1;exitX=1;exitY=0.5;exitDx=0;exitDy=0;fillColor=#60a917;strokeColor=#2D7600;strokeWidth=3;entryX=0;entryY=0.5;entryDx=0;entryDy=0;startArrow=none;" parent="1" source="A8_FpeVpBRCD3ABZSXtD-67" target="Ab45LtixUykTujZ2iHWU-102" edge="1">
                    <mxGeometry relative="1" as="geometry">
                        <Array as="points">
                            <mxPoint x="1090" y="730"/>
                            <mxPoint x="1090" y="560"/>
                        </Array>
                        <mxPoint x="1180" y="175" as="targetPoint"/>
                    </mxGeometry>
                </mxCell>
                <mxCell id="A8_FpeVpBRCD3ABZSXtD-65" value="" style="edgeStyle=none;html=1;exitX=1;exitY=0.5;exitDx=0;exitDy=0;strokeWidth=3;fillColor=#60a917;strokeColor=#2D7600;entryX=0;entryY=1;entryDx=0;entryDy=0;endArrow=none;" edge="1" parent="1" source="34" target="A8_FpeVpBRCD3ABZSXtD-64">
                    <mxGeometry relative="1" as="geometry">
                        <Array as="points"/>
                        <mxPoint x="810" y="1084.9999999999998" as="sourcePoint"/>
                        <mxPoint x="1212.9289321881345" y="917.0710678118653" as="targetPoint"/>
                    </mxGeometry>
                </mxCell>
                <mxCell id="A8_FpeVpBRCD3ABZSXtD-66" value="on click" style="edgeLabel;html=1;align=center;verticalAlign=middle;resizable=0;points=[];" vertex="1" connectable="0" parent="A8_FpeVpBRCD3ABZSXtD-65">
                    <mxGeometry x="-0.7846" y="4" relative="1" as="geometry">
                        <mxPoint x="188" y="-86" as="offset"/>
                    </mxGeometry>
                </mxCell>
                <mxCell id="A8_FpeVpBRCD3ABZSXtD-64" value="" style="ellipse;whiteSpace=wrap;html=1;aspect=fixed;labelBackgroundColor=none;strokeColor=#2D7600;strokeWidth=0;fontSize=9;fontColor=#ffffff;fillColor=#60a917;" vertex="1" parent="1">
                    <mxGeometry x="800" y="1075" width="20" height="20" as="geometry"/>
                </mxCell>
                <mxCell id="A8_FpeVpBRCD3ABZSXtD-68" value="" style="edgeStyle=none;html=1;exitX=1;exitY=0.5;exitDx=0;exitDy=0;fillColor=#60a917;strokeColor=#2D7600;strokeWidth=3;entryX=0;entryY=0.5;entryDx=0;entryDy=0;endArrow=none;" edge="1" parent="1" source="Ab45LtixUykTujZ2iHWU-71" target="A8_FpeVpBRCD3ABZSXtD-67">
                    <mxGeometry relative="1" as="geometry">
                        <Array as="points"/>
                        <mxPoint x="767.5" y="730" as="sourcePoint"/>
                        <mxPoint x="1209.9999999999998" y="175" as="targetPoint"/>
                    </mxGeometry>
                </mxCell>
                <mxCell id="A8_FpeVpBRCD3ABZSXtD-69" value="on click" style="edgeLabel;html=1;align=center;verticalAlign=middle;resizable=0;points=[];" vertex="1" connectable="0" parent="A8_FpeVpBRCD3ABZSXtD-68">
                    <mxGeometry x="-0.3716" y="-2" relative="1" as="geometry">
                        <mxPoint x="185" y="2" as="offset"/>
                    </mxGeometry>
                </mxCell>
                <mxCell id="A8_FpeVpBRCD3ABZSXtD-67" value="" style="ellipse;whiteSpace=wrap;html=1;aspect=fixed;labelBackgroundColor=none;strokeColor=#2D7600;strokeWidth=0;fontSize=9;fontColor=#ffffff;fillColor=#60a917;" vertex="1" parent="1">
                    <mxGeometry x="760" y="721" width="20" height="20" as="geometry"/>
                </mxCell>
                <mxCell id="pwWlHZMNSHFD94gdd8Dv-106" style="edgeStyle=none;html=1;strokeWidth=3;fillColor=#60a917;strokeColor=#2D7600;entryX=0;entryY=0.5;entryDx=0;entryDy=0;exitX=0.5;exitY=1;exitDx=0;exitDy=0;" parent="1" source="A8_FpeVpBRCD3ABZSXtD-70" target="Ab45LtixUykTujZ2iHWU-105" edge="1">
                    <mxGeometry relative="1" as="geometry">
                        <Array as="points">
                            <mxPoint x="630" y="830"/>
                        </Array>
                        <mxPoint x="640" y="790" as="sourcePoint"/>
                        <mxPoint x="1180" y="840" as="targetPoint"/>
                    </mxGeometry>
                </mxCell>
                <mxCell id="pwWlHZMNSHFD94gdd8Dv-108" value="on click" style="edgeLabel;html=1;align=center;verticalAlign=middle;resizable=0;points=[];" parent="pwWlHZMNSHFD94gdd8Dv-106" vertex="1" connectable="0">
                    <mxGeometry x="-0.4919" y="-1" relative="1" as="geometry">
                        <mxPoint x="219" y="-1" as="offset"/>
                    </mxGeometry>
                </mxCell>
                <mxCell id="Ab45LtixUykTujZ2iHWU-102" value="" style="ellipse;whiteSpace=wrap;html=1;aspect=fixed;labelBackgroundColor=none;strokeColor=#2D7600;strokeWidth=0;fontSize=9;fontColor=#ffffff;fillColor=#60a917;" vertex="1" parent="1">
                    <mxGeometry x="1210" y="550" width="20" height="20" as="geometry"/>
                </mxCell>
            </root>
        </mxGraphModel>
    </diagram>
    <diagram id="7LCriiW55SLubvVZoDfY" name="data-model">
        <mxGraphModel dx="2615" dy="1758" grid="1" gridSize="10" guides="1" tooltips="1" connect="1" arrows="1" fold="1" page="1" pageScale="1" pageWidth="850" pageHeight="1100" math="0" shadow="0">
            <root>
                <mxCell id="0"/>
                <mxCell id="1" parent="0"/>
                <mxCell id="NbHU7CBReJTRZ9djm_dK-7" style="edgeStyle=none;html=1;exitX=1;exitY=0.75;exitDx=0;exitDy=0;entryX=0;entryY=0.75;entryDx=0;entryDy=0;" parent="1" source="NbHU7CBReJTRZ9djm_dK-1" target="NbHU7CBReJTRZ9djm_dK-2" edge="1">
                    <mxGeometry relative="1" as="geometry"/>
                </mxCell>
                <mxCell id="NbHU7CBReJTRZ9djm_dK-1" value="Trip" style="rounded=0;whiteSpace=wrap;html=1;" parent="1" vertex="1">
                    <mxGeometry x="360" y="370" width="120" height="60" as="geometry"/>
                </mxCell>
                <mxCell id="NbHU7CBReJTRZ9djm_dK-2" value="Place" style="rounded=0;whiteSpace=wrap;html=1;" parent="1" vertex="1">
                    <mxGeometry x="570" y="370" width="120" height="60" as="geometry"/>
                </mxCell>
                <mxCell id="NbHU7CBReJTRZ9djm_dK-4" style="edgeStyle=none;html=1;exitX=0.5;exitY=1;exitDx=0;exitDy=0;entryX=1;entryY=0;entryDx=0;entryDy=0;" parent="1" source="NbHU7CBReJTRZ9djm_dK-3" target="NbHU7CBReJTRZ9djm_dK-1" edge="1">
                    <mxGeometry relative="1" as="geometry"/>
                </mxCell>
                <mxCell id="NbHU7CBReJTRZ9djm_dK-3" value="User" style="rounded=0;whiteSpace=wrap;html=1;" parent="1" vertex="1">
                    <mxGeometry x="470" y="220" width="120" height="60" as="geometry"/>
                </mxCell>
                <mxCell id="NbHU7CBReJTRZ9djm_dK-5" value="1" style="text;html=1;strokeColor=none;fillColor=none;align=center;verticalAlign=middle;whiteSpace=wrap;rounded=0;" parent="1" vertex="1">
                    <mxGeometry x="530" y="280" width="20" height="20" as="geometry"/>
                </mxCell>
                <mxCell id="NbHU7CBReJTRZ9djm_dK-6" value="n" style="text;html=1;strokeColor=none;fillColor=none;align=center;verticalAlign=middle;whiteSpace=wrap;rounded=0;" parent="1" vertex="1">
                    <mxGeometry x="460" y="350" width="20" height="20" as="geometry"/>
                </mxCell>
                <mxCell id="NbHU7CBReJTRZ9djm_dK-8" value="0" style="text;html=1;strokeColor=none;fillColor=none;align=center;verticalAlign=middle;whiteSpace=wrap;rounded=0;" parent="1" vertex="1">
                    <mxGeometry x="480" y="415" width="20" height="20" as="geometry"/>
                </mxCell>
                <mxCell id="NbHU7CBReJTRZ9djm_dK-10" value="n" style="text;html=1;strokeColor=none;fillColor=none;align=center;verticalAlign=middle;whiteSpace=wrap;rounded=0;" parent="1" vertex="1">
                    <mxGeometry x="540" y="415" width="30" height="15" as="geometry"/>
                </mxCell>
            </root>
        </mxGraphModel>
    </diagram>
    <diagram id="isKyzH7FRRpYFoU7xccp" name="error">
        <mxGraphModel dx="2615" dy="1758" grid="1" gridSize="10" guides="1" tooltips="1" connect="1" arrows="1" fold="1" page="1" pageScale="1" pageWidth="850" pageHeight="1100" math="0" shadow="0">
            <root>
                <mxCell id="0"/>
                <mxCell id="1" parent="0"/>
                <mxCell id="Mx2kI6IuON_NfaiX_YMp-5" value="" style="rounded=0;whiteSpace=wrap;html=1;" parent="1" vertex="1">
                    <mxGeometry x="250" y="150" width="280" height="470" as="geometry"/>
                </mxCell>
                <mxCell id="Mx2kI6IuON_NfaiX_YMp-6" value="Trip xxxx" style="text;html=1;strokeColor=none;fillColor=none;align=center;verticalAlign=middle;whiteSpace=wrap;rounded=0;" parent="1" vertex="1">
                    <mxGeometry x="270" y="160" width="60" height="30" as="geometry"/>
                </mxCell>
                <mxCell id="Mx2kI6IuON_NfaiX_YMp-7" value="Error......" style="rounded=0;whiteSpace=wrap;html=1;" parent="1" vertex="1">
                    <mxGeometry x="283.6" y="270" width="212.8" height="190" as="geometry"/>
                </mxCell>
                <mxCell id="vL9eX8vo_L0iRTxf1G84-1" value="On error we should just send a modal to the user" style="text;html=1;strokeColor=none;fillColor=none;align=center;verticalAlign=middle;whiteSpace=wrap;rounded=0;" parent="1" vertex="1">
                    <mxGeometry x="290" y="110" width="210" height="30" as="geometry"/>
                </mxCell>
            </root>
        </mxGraphModel>
    </diagram>
    <diagram id="goqVHtzNErgMAZ13cm7S" name="save">
        <mxGraphModel dx="2615" dy="1758" grid="1" gridSize="10" guides="1" tooltips="1" connect="1" arrows="1" fold="1" page="1" pageScale="1" pageWidth="850" pageHeight="1100" math="0" shadow="0">
            <root>
                <mxCell id="0"/>
                <mxCell id="1" parent="0"/>
                <mxCell id="v-O8CpvHIsmXnUQrPsfW-1" value="" style="rounded=0;whiteSpace=wrap;html=1;" parent="1" vertex="1">
                    <mxGeometry x="290" y="130" width="280" height="470" as="geometry"/>
                </mxCell>
                <mxCell id="v-O8CpvHIsmXnUQrPsfW-2" value="Trip xxxx" style="text;html=1;strokeColor=none;fillColor=none;align=center;verticalAlign=middle;whiteSpace=wrap;rounded=0;" parent="1" vertex="1">
                    <mxGeometry x="310" y="140" width="60" height="30" as="geometry"/>
                </mxCell>
                <mxCell id="v-O8CpvHIsmXnUQrPsfW-3" value="Something happened it's great! happyyy" style="rounded=0;whiteSpace=wrap;html=1;" parent="1" vertex="1">
                    <mxGeometry x="290" y="570" width="280" height="30" as="geometry"/>
                </mxCell>
                <mxCell id="v-O8CpvHIsmXnUQrPsfW-4" value="Toast" style="text;html=1;strokeColor=none;fillColor=none;align=center;verticalAlign=middle;whiteSpace=wrap;rounded=0;" parent="1" vertex="1">
                    <mxGeometry x="220" y="570" width="60" height="30" as="geometry"/>
                </mxCell>
            </root>
        </mxGraphModel>
    </diagram>
    <diagram id="Mn90z8mYpYjBwt4FrYyJ" name="nice to have">
        <mxGraphModel dx="1765" dy="1758" grid="1" gridSize="10" guides="1" tooltips="1" connect="1" arrows="1" fold="1" page="1" pageScale="1" pageWidth="850" pageHeight="1100" math="0" shadow="0">
            <root>
                <mxCell id="0"/>
                <mxCell id="1" parent="0"/>
                <mxCell id="VHQWdeB8472m2TOZWYiB-2" value="" style="rounded=0;whiteSpace=wrap;html=1;" parent="1" vertex="1">
                    <mxGeometry x="1060" y="200" width="380" height="440" as="geometry"/>
                </mxCell>
                <mxCell id="VHQWdeB8472m2TOZWYiB-3" value="BudgetView" style="rounded=0;whiteSpace=wrap;html=1;fillColor=#d80073;fontColor=#ffffff;strokeColor=#A50040;" parent="1" vertex="1">
                    <mxGeometry x="1330" y="290" width="90" height="30" as="geometry"/>
                </mxCell>
                <mxCell id="VHQWdeB8472m2TOZWYiB-4" value="Overview" style="rounded=0;whiteSpace=wrap;html=1;" parent="1" vertex="1">
                    <mxGeometry x="1150" y="290" width="80" height="30" as="geometry"/>
                </mxCell>
                <mxCell id="VHQWdeB8472m2TOZWYiB-5" value="MapView" style="rounded=0;whiteSpace=wrap;html=1;" parent="1" vertex="1">
                    <mxGeometry x="1240" y="290" width="80" height="30" as="geometry"/>
                </mxCell>
                <mxCell id="VHQWdeB8472m2TOZWYiB-6" value="" style="rounded=0;whiteSpace=wrap;html=1;strokeWidth=4;" parent="1" vertex="1">
                    <mxGeometry x="1075" y="380" width="180" height="70" as="geometry"/>
                </mxCell>
                <mxCell id="VHQWdeB8472m2TOZWYiB-7" value="Card" style="text;html=1;strokeColor=none;fillColor=none;align=center;verticalAlign=middle;whiteSpace=wrap;rounded=0;" parent="1" vertex="1">
                    <mxGeometry x="1195" y="380" width="60" height="30" as="geometry"/>
                </mxCell>
                <mxCell id="VHQWdeB8472m2TOZWYiB-8" value="Img" style="rounded=0;whiteSpace=wrap;html=1;" parent="1" vertex="1">
                    <mxGeometry x="1075" y="410" width="90" height="30" as="geometry"/>
                </mxCell>
                <mxCell id="VHQWdeB8472m2TOZWYiB-9" value="Place" style="text;html=1;strokeColor=none;fillColor=none;align=center;verticalAlign=middle;whiteSpace=wrap;rounded=0;" parent="1" vertex="1">
                    <mxGeometry x="1095" y="380" width="60" height="30" as="geometry"/>
                </mxCell>
                <mxCell id="VHQWdeB8472m2TOZWYiB-10" value="" style="rounded=0;whiteSpace=wrap;html=1;" parent="1" vertex="1">
                    <mxGeometry x="1075" y="450" width="180" height="70" as="geometry"/>
                </mxCell>
                <mxCell id="VHQWdeB8472m2TOZWYiB-11" value="Card" style="text;html=1;strokeColor=none;fillColor=none;align=center;verticalAlign=middle;whiteSpace=wrap;rounded=0;" parent="1" vertex="1">
                    <mxGeometry x="1195" y="450" width="60" height="30" as="geometry"/>
                </mxCell>
                <mxCell id="VHQWdeB8472m2TOZWYiB-12" value="Img" style="rounded=0;whiteSpace=wrap;html=1;" parent="1" vertex="1">
                    <mxGeometry x="1075" y="480" width="90" height="30" as="geometry"/>
                </mxCell>
                <mxCell id="VHQWdeB8472m2TOZWYiB-13" value="Place" style="text;html=1;strokeColor=none;fillColor=none;align=center;verticalAlign=middle;whiteSpace=wrap;rounded=0;" parent="1" vertex="1">
                    <mxGeometry x="1095" y="450" width="60" height="30" as="geometry"/>
                </mxCell>
                <mxCell id="VHQWdeB8472m2TOZWYiB-14" value="Budget: $$$" style="text;html=1;strokeColor=none;fillColor=none;align=center;verticalAlign=middle;whiteSpace=wrap;rounded=0;" parent="1" vertex="1">
                    <mxGeometry x="1160" y="400" width="85" height="30" as="geometry"/>
                </mxCell>
                <mxCell id="VHQWdeB8472m2TOZWYiB-15" value="Global budget $" style="rounded=0;whiteSpace=wrap;html=1;" parent="1" vertex="1">
                    <mxGeometry x="1260" y="340" width="160" height="20" as="geometry"/>
                </mxCell>
                <mxCell id="VHQWdeB8472m2TOZWYiB-16" value="" style="rounded=0;whiteSpace=wrap;html=1;" parent="1" vertex="1">
                    <mxGeometry x="1300" y="400" width="120" height="10" as="geometry"/>
                </mxCell>
                <mxCell id="VHQWdeB8472m2TOZWYiB-17" value="" style="ellipse;whiteSpace=wrap;html=1;aspect=fixed;" parent="1" vertex="1">
                    <mxGeometry x="1400" y="395" width="20" height="20" as="geometry"/>
                </mxCell>
                <mxCell id="VHQWdeB8472m2TOZWYiB-18" value="$$$/day" style="text;html=1;strokeColor=none;fillColor=none;align=center;verticalAlign=middle;whiteSpace=wrap;rounded=0;" parent="1" vertex="1">
                    <mxGeometry x="1195" y="415" width="60" height="30" as="geometry"/>
                </mxCell>
                <mxCell id="VHQWdeB8472m2TOZWYiB-19" value="&lt;span style=&quot;color: rgb(240, 240, 240); font-family: Helvetica; font-size: 12px; font-style: normal; font-variant-ligatures: normal; font-variant-caps: normal; font-weight: 400; letter-spacing: normal; orphans: 2; text-align: center; text-indent: 0px; text-transform: none; widows: 2; word-spacing: 0px; -webkit-text-stroke-width: 0px; background-color: rgb(42, 37, 47); text-decoration-thickness: initial; text-decoration-style: initial; text-decoration-color: initial; float: none; display: inline !important;&quot;&gt;Trip (budget view)&lt;/span&gt;" style="text;whiteSpace=wrap;html=1;" parent="1" vertex="1">
                    <mxGeometry x="1195" y="215" width="130" height="40" as="geometry"/>
                </mxCell>
                <mxCell id="VHQWdeB8472m2TOZWYiB-20" value="Trip detail add a budget view" style="text;html=1;strokeColor=none;fillColor=none;align=center;verticalAlign=middle;whiteSpace=wrap;rounded=0;labelBackgroundColor=none;" parent="1" vertex="1">
                    <mxGeometry x="1210" y="150" width="60" height="30" as="geometry"/>
                </mxCell>
            </root>
        </mxGraphModel>
    </diagram>
</mxfile>